<?xml version="1.0" encoding="iso-8859-1"?>
<!-- Uploaded to: SVG Repo, www.svgrepo.com, Generator: SVG Repo Mixer Tools -->
<svg height="800px" width="800px" version="1.1" id="Layer_1" xmlns="http://www.w3.org/2000/svg" xmlns:xlink="http://www.w3.org/1999/xlink" 
	 viewBox="0 0 512 512" xml:space="preserve">
<path style="fill:#FFD782;" d="M480.336,215.505l-19.92,0.037c-5.462-27.752-16.4-53.533-31.69-76.14l14.048-14.101
	c9.333-9.368,9.304-24.669-0.064-34.003l-22.712-22.627c-9.369-9.333-24.67-9.305-34.003,0.064l-14.048,14.101
	c-22.665-15.206-48.486-26.046-76.258-31.404l-0.037-19.92c-0.025-13.224-10.865-24.024-24.089-23.999l-32.059,0.06
	c-13.224,0.025-24.024,10.865-23.999,24.089l0.037,19.92c-27.752,5.462-53.533,16.4-76.14,31.69l-14.101-14.048
	c-9.369-9.333-24.67-9.305-34.003,0.064L68.672,92.001c-9.333,9.369-9.304,24.67,0.064,34.003l14.101,14.048
	c-15.206,22.665-26.046,48.486-31.404,76.258l-19.92,0.037c-13.224,0.025-24.024,10.865-23.999,24.089l0.06,32.059
	c0.025,13.224,10.865,24.024,24.089,23.999l19.92-0.037c5.462,27.752,16.4,53.532,31.69,76.139l-14.048,14.101
	c-9.333,9.369-9.304,24.67,0.064,34.003l22.712,22.627c9.369,9.333,24.67,9.304,34.003-0.064l14.048-14.101
	c22.664,15.206,48.486,26.046,76.258,31.404l0.037,19.92c0.025,13.224,10.865,24.024,24.089,23.999l32.059-0.06
	c13.224-0.025,24.024-10.865,23.999-24.089l-0.037-19.92c27.752-5.462,53.532-16.4,76.14-31.69l14.101,14.048
	c9.369,9.333,24.67,9.304,34.003-0.064l22.627-22.712c9.333-9.369,9.304-24.67-0.064-34.003l-14.101-14.048
	c15.206-22.664,26.046-48.486,31.404-76.258l19.92-0.037c13.224-0.025,24.024-10.865,23.999-24.089l-0.06-32.059
	C504.401,226.278,493.561,215.48,480.336,215.505z"/>
<circle style="fill:#FFFFFF;" cx="256" cy="256" r="169.311"/>
<path style="fill:#FFC36E;" d="M255.97,239.971c-21.724,0.041-40.098-12.772-40.127-27.976
	c-0.029-15.204,18.298-28.086,40.02-28.127c18.064-0.034,34.443,8.955,38.944,21.376c0.782,2.151,1.178,4.373,1.182,6.6
	c0.017,8.852,7.207,16.016,16.059,15.999s16.016-7.207,15.999-16.059c-0.011-5.945-1.055-11.817-3.101-17.464
	c-7.649-21.106-28.095-36.279-53.112-40.896l-0.003-1.645c-0.017-8.852-7.207-16.015-16.059-15.999s-16.016,7.207-15.999,16.059
	l0.003,1.548c-32.061,6.157-56.047,30.117-55.993,58.668c0.062,33.147,32.473,60.049,72.246,59.975
	c21.724-0.041,40.098,12.772,40.127,27.976s-18.298,28.086-40.02,28.127c-21.724,0.041-40.098-12.772-40.127-27.976
	c-0.017-8.852-7.207-16.016-16.059-15.999s-16.016,7.207-15.999,16.059c0.054,28.55,24.129,52.42,56.213,58.457l0.003,1.548
	c0.017,8.852,7.207,16.016,16.059,15.999c8.852-0.017,16.016-7.207,15.999-16.059l-0.003-1.548
	c32.061-6.157,56.047-30.117,55.993-58.668C328.153,266.798,295.742,239.895,255.97,239.971z"/>
<path d="M279.983,313.607c-6.316,4.44-15.013,6.994-23.951,7.011c-17.298,0-32.488-9.569-32.509-20.476
	c-0.024-12.958-10.585-23.499-23.587-23.499c-6.289,0.012-12.195,2.473-16.635,6.928c-4.438,4.454-6.876,10.372-6.865,16.66
	c0.029,15.643,6.504,30.88,18.229,42.904c10.012,10.266,23.501,17.84,38.44,21.666c2.151,10.779,11.693,18.933,23.088,18.934
	c0.005,0,0.041,0,0.045,0c11.42-0.021,20.952-8.213,23.063-19.021c14.923-3.882,28.383-11.506,38.357-21.811
	c11.681-12.067,18.098-27.328,18.069-42.971c-0.07-37.206-35.777-67.476-79.595-67.476h-0.268c-17.297,0-32.488-9.569-32.509-20.476
	c-0.009-4.761,3.148-9.713,8.661-13.588c6.316-4.44,15.013-6.994,23.949-7.011c14.724,0,28.385,7.06,31.78,16.432
	c0.481,1.321,0.727,2.683,0.729,4.042c0.024,12.959,10.585,23.5,23.587,23.5c12.982-0.024,23.523-10.605,23.499-23.588
	c-0.013-6.807-1.207-13.54-3.551-20.01c-7.901-21.804-27.531-38.133-53.105-44.491c-2.125-10.814-11.688-19.003-23.146-19.003
	c-6.289,0.012-12.195,2.472-16.635,6.927c-3.345,3.357-5.554,7.544-6.434,12.095c-14.921,3.883-28.38,11.506-38.352,21.81
	c-11.68,12.067-18.097,27.328-18.068,42.971c0.07,37.206,35.775,67.475,79.592,67.475h0.268c17.299,0,32.491,9.569,32.511,20.476
	C288.651,304.781,285.495,309.733,279.983,313.607z M303.671,299.99c-0.037-19.561-21.363-35.475-47.538-35.475h-0.269
	c-35.546,0-64.51-23.54-64.565-52.474c-0.045-24.149,20.939-45.714,49.897-51.276c3.545-0.681,6.103-3.784,6.096-7.393l-0.003-1.548
	c-0.009-4.696,3.804-8.523,8.517-8.532c4.687,0,8.506,3.813,8.515,8.499l0.003,1.645c0.006,3.618,2.591,6.718,6.15,7.375
	c22.701,4.191,40.868,18.011,47.411,36.066c1.75,4.832,2.642,9.852,2.652,14.919c0.004,2.275-0.878,4.414-2.484,6.027
	c-1.606,1.611-3.743,2.502-6.033,2.506c-4.687,0-8.506-3.814-8.515-8.501c-0.006-3.11-0.556-6.189-1.632-9.144
	c-5.616-15.503-24.494-26.33-45.905-26.33h-0.116c-12.033,0.022-23.566,3.483-32.475,9.744
	c-9.581,6.734-15.065,16.177-15.047,25.911c0.037,19.561,21.361,35.475,47.536,35.475h0.269c35.547,0,64.512,23.54,64.568,52.475
	c0.045,24.149-20.939,45.714-49.897,51.275c-3.544,0.68-6.103,3.784-6.096,7.394l0.003,1.547c0.009,4.697-3.804,8.524-8.5,8.533
	l-0.017,7.514v-7.514c-4.687,0-8.507-3.814-8.516-8.5l-0.004-1.549c-0.007-3.609-2.578-6.702-6.124-7.37
	c-28.977-5.451-50.043-26.937-50.089-51.086c-0.004-2.275,0.878-4.415,2.484-6.027c1.606-1.612,3.742-2.502,6.033-2.506
	c4.687,0,8.507,3.813,8.516,8.499c0.037,19.562,21.361,35.476,47.536,35.476h0.118c12.034-0.022,23.566-3.483,32.475-9.744
	C298.204,319.168,303.689,309.724,303.671,299.99z"/>
<path d="M412.114,192.532c-3.91,1.39-5.953,5.686-4.563,9.596c6.099,17.158,9.209,35.182,9.244,53.569
	c0.081,42.951-16.569,83.361-46.882,113.788c-30.314,30.428-70.661,47.23-113.611,47.31c-0.104,0-0.207,0-0.312,0
	c-42.833,0-83.123-16.643-113.476-46.882c-30.428-30.314-47.229-70.661-47.31-113.61c-0.081-42.951,16.569-83.361,46.882-113.789
	c30.313-30.427,70.661-47.229,113.611-47.309c0.102,0,0.199,0,0.303,0c38.032,0,74.922,13.514,103.897,38.069
	c3.167,2.684,7.908,2.293,10.59-0.875c2.683-3.166,2.291-7.908-0.875-10.589C337.923,94.954,297.589,80.177,256,80.177
	c-0.109,0-0.221,0-0.331,0c-46.963,0.088-91.082,18.46-124.228,51.731S80.091,209.365,80.179,256.33s18.46,91.082,51.731,124.229
	c33.192,33.067,77.243,51.265,124.082,51.263c0.112,0,0.229,0,0.341,0c46.963-0.088,91.082-18.46,124.228-51.731
	s51.351-77.457,51.263-124.421c-0.038-20.099-3.44-39.805-10.112-58.575C420.321,193.185,416.024,191.138,412.114,192.532z"/>
<path d="M392.826,171.492c1.422,2.297,3.88,3.561,6.396,3.561c1.349,0,2.715-0.364,3.947-1.126
	c3.528-2.184,4.618-6.816,2.434-10.343c-3.556-5.745-7.49-11.349-11.692-16.657c-2.576-3.253-7.302-3.801-10.555-1.226
	c-3.254,2.576-3.802,7.301-1.226,10.555C385.974,161.111,389.573,166.238,392.826,171.492z"/>
<path d="M511.939,239.489c-0.033-17.368-14.19-31.498-31.617-31.498l-13.817,0.026c-5.457-24.098-14.905-46.8-28.15-67.634
	l9.743-9.779c12.281-12.328,12.242-32.348-0.084-44.63l-22.712-22.626c-5.937-5.915-13.846-9.172-22.272-9.172
	c-8.472,0-16.411,3.287-22.358,9.256l-9.742,9.778c-20.883-13.165-43.62-22.527-67.738-27.894l-0.026-13.817
	C303.133,14.13,288.976,0,271.549,0L239.49,0.061c-17.401,0.032-31.532,14.215-31.499,31.617l0.026,13.818
	c-24.098,5.457-46.8,14.906-67.633,28.15l-9.779-9.743c-5.937-5.915-13.847-9.172-22.273-9.172c-8.472,0-16.411,3.287-22.357,9.256
	L63.35,86.699c-5.93,5.952-9.187,13.883-9.172,22.332s3.303,16.367,9.255,22.297l9.78,9.743
	c-13.165,20.883-22.527,43.62-27.894,67.738L31.5,208.835c-8.403,0.016-16.315,3.32-22.277,9.305s-9.238,13.909-9.223,22.311
	l0.06,32.06c0.033,17.368,14.189,31.497,31.617,31.497l13.818-0.025c5.457,24.099,14.905,46.8,28.15,67.632l-9.743,9.78
	c-12.281,12.328-12.242,32.348,0.084,44.63l22.712,22.627c5.937,5.914,13.846,9.172,22.272,9.172c8.471,0,16.41-3.287,22.358-9.256
	l9.742-9.779c20.883,13.165,43.617,22.527,67.738,27.895l0.026,13.817C208.868,497.87,223.025,512,240.393,512
	c0.005,0,0.055,0,0.059,0l32.059-0.061c8.403-0.016,16.315-3.32,22.277-9.306c5.963-5.985,9.238-13.909,9.222-22.312l-0.026-13.817
	c24.098-5.457,46.797-14.904,67.633-28.15l9.779,9.743c5.936,5.914,13.845,9.171,22.271,9.172c0.001,0,0.001,0,0.002,0
	c8.47,0,16.409-3.287,22.356-9.256l22.627-22.712c12.281-12.328,12.243-32.348-0.083-44.63l-9.779-9.743
	c13.165-20.882,22.527-43.619,27.894-67.738l13.817-0.025c8.403-0.016,16.315-3.32,22.277-9.305
	c5.963-5.986,9.237-13.91,9.222-22.312L511.939,239.489z M492.132,283.253c-3.13,3.142-7.27,4.876-11.659,4.884l-19.92,0.037
	c-3.596,0.007-6.682,2.561-7.364,6.09c-5.1,26.438-15.283,51.164-30.266,73.495c-2.004,2.986-1.61,6.972,0.937,9.509l14.101,14.048
	c6.457,6.433,6.477,16.92,0.044,23.378l-22.627,22.711c-3.107,3.118-7.264,4.835-11.71,4.835l0,0
	c-4.423-0.001-8.566-1.702-11.666-4.791l-14.101-14.047c-2.546-2.537-6.533-2.914-9.512-0.901
	c-22.278,15.068-46.967,25.344-73.382,30.542c-3.527,0.693-6.07,3.79-6.063,7.386l0.038,19.92c0.008,4.389-1.711,8.537-4.841,11.677
	c-3.13,3.142-7.27,4.876-11.659,4.884l-32.059,0.061l-0.031,7.514v-7.514c-9.098,0-16.513-7.402-16.53-16.499l-0.038-19.92
	c-0.007-3.597-2.56-6.683-6.09-7.365c-26.437-5.101-51.164-15.284-73.495-30.267c-1.275-0.856-2.734-1.273-4.184-1.273
	c-1.944,0-3.872,0.752-5.326,2.211l-14.047,14.1c-3.107,3.118-7.265,4.835-11.712,4.835c-4.422,0-8.565-1.701-11.666-4.791
	l-22.712-22.627c-6.457-6.433-6.477-16.921-0.044-23.378l14.048-14.101c2.538-2.547,2.915-6.534,0.901-9.512
	c-15.067-22.274-25.343-46.963-30.542-73.38c-0.693-3.523-3.783-6.063-7.373-6.063c-0.004,0-0.009,0-0.014,0l-19.953,0.037
	c-9.097,0-16.511-7.402-16.529-16.498l-0.06-32.059c-0.008-4.39,1.711-8.537,4.84-11.677c3.13-3.142,7.27-4.876,11.659-4.884
	l19.92-0.038c3.596-0.007,6.682-2.561,7.364-6.09c5.1-26.437,15.283-51.163,30.266-73.495c2.004-2.985,1.61-6.972-0.937-9.509
	l-14.102-14.048c-3.109-3.098-4.825-7.244-4.834-11.678c-0.009-4.434,1.693-8.589,4.791-11.698l22.626-22.712
	c3.106-3.117,7.264-4.834,11.711-4.834c4.422,0,8.566,1.701,11.666,4.791l14.101,14.047c2.547,2.537,6.535,2.915,9.512,0.901
	c22.275-15.067,46.964-25.343,73.382-30.542c3.527-0.693,6.07-3.79,6.063-7.387l-0.038-19.919
	c-0.017-9.116,7.385-16.545,16.499-16.561l32.094-0.06c9.098,0,16.513,7.402,16.53,16.5l0.038,19.919
	c0.007,3.597,2.56,6.683,6.09,7.365c26.436,5.099,51.163,15.282,73.495,30.266c2.985,2.001,6.972,1.61,9.509-0.938l14.048-14.1
	c3.106-3.117,7.265-4.834,11.711-4.834c4.422,0,8.565,1.701,11.666,4.791l22.712,22.626c6.457,6.433,6.477,16.921,0.044,23.378
	l-14.048,14.1c-2.538,2.547-2.915,6.534-0.901,9.512c15.068,22.277,25.342,46.966,30.542,73.382
	c0.693,3.523,3.783,6.063,7.373,6.063c0.004,0,0.01,0,0.015,0l19.95-0.038c9.099,0,16.513,7.402,16.53,16.499l0.06,32.059
	C496.981,275.966,495.262,280.112,492.132,283.253z"/>
</svg>